<?xml version="1.0" standalone="no"?>
<!DOCTYPE svg PUBLIC "-//W3C//DTD SVG 20010904//EN"
 "http://www.w3.org/TR/2001/REC-SVG-20010904/DTD/svg10.dtd">
<svg version="1.0" xmlns="http://www.w3.org/2000/svg"
 width="865.000000pt" height="1024.000000pt" viewBox="0 0 865.000000 1024.000000"
 preserveAspectRatio="xMidYMid meet">

<g transform="translate(0.000000,1024.000000) scale(0.100000,-0.100000)"
fill="#000000" stroke="none">
<path d="M4385 5551 c-3 -5 -1 -12 5 -16 5 -3 10 1 10 9 0 18 -6 21 -15 7z"/>
<path d="M4300 5461 c0 -6 9 -9 20 -8 11 1 20 5 20 9 0 4 -9 8 -20 8 -11 0
-20 -4 -20 -9z"/>
<path d="M3820 5435 c-7 -8 -17 -15 -22 -15 -5 0 -24 -11 -42 -25 -46 -35
-190 -100 -264 -119 -35 -9 -75 -22 -90 -30 -24 -13 -25 -15 -9 -22 10 -4 35
1 57 11 22 10 47 18 57 19 24 2 97 27 103 35 3 4 43 26 90 50 47 24 87 46 90
50 3 3 20 19 38 34 19 15 27 27 19 27 -8 0 -20 -7 -27 -15z"/>
<path d="M4832 5427 c63 -52 106 -79 177 -113 42 -20 91 -43 110 -52 19 -10
41 -28 50 -41 16 -24 15 -24 -14 -17 -34 9 -65 33 -65 51 0 14 -48 30 -59 20
-3 -4 3 -13 13 -21 13 -9 17 -17 10 -24 -9 -9 -85 33 -92 52 -3 8 -35 23 -99
48 -17 7 -21 6 -16 -5 3 -8 9 -15 15 -15 5 0 24 -11 42 -25 18 -14 37 -25 43
-25 5 0 33 -18 62 -39 45 -34 56 -38 72 -28 14 9 22 9 27 1 4 -6 30 -24 57
-39 28 -16 59 -39 70 -51 11 -13 34 -26 50 -29 27 -5 28 -4 7 5 -32 14 -20 28
20 23 l33 -4 -35 16 c-19 9 -47 23 -62 31 -15 8 -32 13 -39 12 -7 -2 -14 7
-15 19 -1 18 2 21 17 13 10 -6 27 -10 38 -10 12 0 40 -8 64 -19 103 -45 127
-51 92 -25 -16 12 -17 16 -6 23 15 10 8 15 -33 25 -44 11 -26 15 24 6 36 -7
49 -5 67 10 13 10 20 21 16 23 -5 3 -42 9 -83 13 -76 7 -258 55 -295 78 -11 7
-56 27 -100 46 -44 19 -100 47 -124 62 -53 33 -77 36 -39 5z m385 -204 c-8 -7
-37 9 -31 19 3 5 12 4 20 -3 8 -6 13 -14 11 -16z"/>
<path d="M4629 5329 c-31 -30 -40 -43 -30 -47 14 -5 49 31 72 71 15 26 6 21
-42 -24z"/>
<path d="M3780 5318 c-58 -36 -94 -68 -76 -68 9 0 16 5 16 10 0 6 7 10 16 10
8 0 36 16 61 35 50 38 39 47 -17 13z"/>
<path d="M3615 5270 c-3 -5 -2 -10 4 -10 5 0 13 5 16 10 3 6 2 10 -4 10 -5 0
-13 -4 -16 -10z"/>
<path d="M3830 5245 c-7 -9 -8 -15 -2 -15 5 0 12 7 16 15 3 8 4 15 2 15 -2 0
-9 -7 -16 -15z"/>
<path d="M4830 5235 c23 -24 25 -25 37 -9 15 21 17 19 -26 28 l-35 6 24 -25z"/>
<path d="M4259 5220 c-4 -22 -8 -25 -44 -22 -38 2 -39 1 -20 -13 11 -9 30 -18
42 -21 26 -7 28 -16 28 -133 0 -67 -4 -96 -12 -98 -16 -6 -17 -30 -1 -35 7 -3
14 -35 17 -79 3 -41 9 -69 13 -64 6 10 13 292 7 305 -1 3 -7 46 -13 95 -7 50
-14 79 -17 65z"/>
<path d="M4525 5230 c-3 -5 -1 -10 4 -10 6 0 11 5 11 10 0 6 -2 10 -4 10 -3 0
-8 -4 -11 -10z"/>
<path d="M3150 5220 c8 -5 33 -9 55 -9 39 1 39 2 10 9 -16 4 -41 8 -55 9 -20
0 -22 -1 -10 -9z"/>
<path d="M3630 5220 c-8 -5 -24 -7 -35 -3 -18 5 -18 4 -3 -11 21 -20 20 -20
48 4 24 21 17 27 -10 10z"/>
<path d="M4371 5214 c0 -11 3 -14 6 -6 3 7 2 16 -1 19 -3 4 -6 -2 -5 -13z"/>
<path d="M4460 5205 c-62 -15 -72 -39 -71 -173 1 -94 17 -218 20 -154 1 12 5
22 10 22 5 0 11 -10 13 -22 2 -13 9 -22 17 -20 7 1 18 -2 25 -7 15 -13 101
-27 161 -26 43 0 50 3 47 19 -3 15 1 17 28 11 29 -6 31 -5 24 19 -6 26 8 37
21 16 14 -22 23 -8 13 21 -6 16 -8 33 -4 36 9 9 56 -18 56 -33 0 -7 5 -16 11
-20 7 -4 10 5 8 27 -4 49 10 90 29 87 9 -2 28 -14 41 -28 l24 -25 -6 32 c-7
36 -35 73 -54 73 -7 0 -13 9 -13 20 0 11 -7 20 -15 20 -8 0 -15 4 -15 8 0 5
-13 7 -30 4 -16 -2 -30 -8 -30 -12 0 -5 -16 -18 -36 -30 -33 -21 -40 -22 -107
-12 -46 7 -75 8 -81 2 -7 -7 -5 -10 3 -10 7 0 9 -4 6 -10 -3 -5 1 -10 10 -10
9 0 13 5 10 10 -3 6 -1 10 5 10 7 0 9 -7 6 -16 -3 -9 -6 -20 -6 -25 0 -6 -16
-17 -36 -25 -20 -8 -38 -24 -41 -34 -3 -11 -19 -26 -35 -35 -28 -13 -30 -13
-35 5 -3 10 -10 17 -16 14 -9 -3 -12 25 -12 98 0 114 0 115 79 155 48 25 36
34 -24 18z m132 -277 c-7 -7 -12 -8 -12 -2 0 6 3 14 7 17 3 4 9 5 12 2 2 -3
-1 -11 -7 -17z"/>
<path d="M3440 5201 c0 -5 9 -7 20 -4 11 3 20 7 20 9 0 2 -9 4 -20 4 -11 0
-20 -4 -20 -9z"/>
<path d="M3518 5203 c-16 -2 -28 -9 -28 -14 0 -13 24 -11 56 6 29 15 25 16
-28 8z"/>
<path d="M4965 5190 c3 -5 -1 -10 -9 -10 -9 0 -16 -4 -16 -9 0 -15 23 -26 28
-13 2 6 17 1 39 -14 36 -24 83 -32 83 -15 0 5 -17 15 -37 22 -20 6 -46 20 -57
30 -21 20 -41 26 -31 9z"/>
<path d="M3330 5175 c-16 -9 -19 -14 -9 -15 8 0 24 7 35 15 24 18 7 19 -26 0z"/>
<path d="M3670 5170 c-9 -6 -10 -10 -3 -10 6 0 15 5 18 10 8 12 4 12 -15 0z"/>
<path d="M3707 5173 c-10 -9 -9 -23 2 -23 5 0 11 7 15 15 5 15 -5 20 -17 8z"/>
<path d="M3893 5174 c-24 -10 -1 -34 31 -33 17 1 23 3 14 6 -10 2 -18 11 -18
19 0 14 -6 16 -27 8z"/>
<path d="M4736 5171 c-3 -4 4 -12 14 -19 14 -9 19 -8 23 2 6 14 -29 30 -37 17z"/>
<path d="M3620 5140 c-8 -5 -11 -12 -7 -16 4 -4 15 0 24 9 18 18 8 23 -17 7z"/>
<path d="M3834 5115 c-17 -19 -29 -37 -26 -40 4 -3 1 -10 -7 -14 -17 -11 -30
-74 -25 -119 5 -36 42 -112 55 -112 4 0 -2 18 -12 41 -11 22 -17 48 -14 58 7
23 45 35 45 15 0 -18 5 -18 37 3 l26 17 -7 -44 c-6 -36 -5 -43 5 -32 7 6 19
12 26 12 8 0 13 -6 12 -12 -1 -7 -1 -22 0 -32 1 -19 1 -19 22 0 22 19 22 19
15 -8 -6 -26 -5 -27 39 -23 35 3 45 0 45 -11 0 -14 2 -14 15 -1 7 8 35 18 60
21 26 4 49 14 52 22 4 11 9 12 18 4 10 -8 15 -6 20 12 5 14 3 24 -4 26 -21 7
-52 46 -47 59 4 9 -4 13 -24 13 -19 0 -34 8 -45 23 -15 21 -14 23 6 40 12 10
20 20 17 23 -7 7 -54 6 -120 -2 l-58 -6 -44 45 c-25 25 -42 48 -39 51 4 3 2 6
-3 5 -5 0 -23 -16 -40 -34z"/>
<path d="M3418 5123 c7 -3 16 -2 19 1 4 3 -2 6 -13 5 -11 0 -14 -3 -6 -6z"/>
<path d="M3741 5109 c-17 -14 -21 -23 -14 -30 8 -8 16 -3 28 15 22 34 17 40
-14 15z"/>
<path d="M5110 5118 c0 -3 26 -17 58 -33 31 -15 65 -32 76 -37 36 -18 6 11
-37 36 -40 23 -97 43 -97 34z"/>
<path d="M4937 5086 c-4 -10 -1 -13 9 -9 7 3 14 9 14 14 0 14 -17 10 -23 -5z"/>
<path d="M4190 5050 c0 -5 5 -10 10 -10 6 0 10 5 10 10 0 6 -4 10 -10 10 -5 0
-10 -4 -10 -10z"/>
<path d="M4475 5050 c-17 -7 -15 -9 13 -9 17 -1 32 4 32 9 0 12 -17 12 -45 0z"/>
<path d="M3710 5011 c0 -6 5 -13 10 -16 6 -3 10 1 10 9 0 9 -4 16 -10 16 -5 0
-10 -4 -10 -9z"/>
<path d="M4360 4883 c0 -89 3 -123 10 -113 12 17 10 240 -2 240 -4 0 -8 -57
-8 -127z"/>
<path d="M4190 4825 c-10 -13 -9 -15 9 -15 12 0 21 6 21 15 0 8 -4 15 -9 15
-5 0 -14 -7 -21 -15z"/>
<path d="M4465 4830 c-8 -13 -1 -24 14 -19 6 3 7 10 2 18 -6 10 -10 10 -16 1z"/>
<path d="M3843 4804 c-7 -19 21 -51 31 -35 4 6 0 14 -8 17 -25 10 -19 26 7 19
17 -5 19 -4 7 4 -21 15 -30 14 -37 -5z"/>
<path d="M3805 4800 c3 -5 10 -10 16 -10 5 0 9 5 9 10 0 6 -7 10 -16 10 -8 0
-12 -4 -9 -10z"/>
<path d="M4073 4726 c4 -10 7 -24 7 -33 0 -25 44 -12 48 15 2 14 -2 22 -11 22
-9 0 -23 3 -33 7 -14 5 -16 3 -11 -11z"/>
<path d="M4505 4674 c-27 -8 -85 -16 -128 -17 -43 -1 -81 -7 -85 -12 -8 -13
-112 -14 -112 -2 0 4 -5 5 -10 2 -6 -4 -7 -11 -4 -17 4 -7 2 -8 -4 -4 -7 4
-16 -3 -21 -17 -6 -14 -15 -28 -21 -32 -5 -3 -8 -11 -5 -16 4 -5 1 -9 -4 -9
-6 0 -11 -7 -11 -16 0 -8 -11 -30 -25 -48 -26 -34 -34 -81 -13 -74 7 3 15 15
19 29 6 20 7 21 8 4 1 -11 12 -37 24 -58 l23 -39 0 64 c0 94 8 115 61 148 81
51 83 49 84 -92 2 -132 4 -132 14 2 6 81 8 86 30 88 21 1 24 -3 29 -51 4 -28
7 -72 9 -97 1 -25 7 -45 12 -45 6 0 11 45 13 108 2 100 4 107 23 107 33 0 75
-27 109 -70 31 -39 53 -53 46 -27 -12 36 -15 77 -6 72 6 -3 10 -2 10 4 0 5 14
12 30 16 36 8 36 9 10 43 -22 28 -14 41 25 42 11 0 27 5 35 10 12 8 8 10 -15
10 -16 0 -46 2 -65 4 -19 3 -57 -2 -85 -10z m-128 -171 c-3 -10 -5 -2 -5 17 0
19 2 27 5 18 2 -10 2 -26 0 -35z m-254 -1 c-3 -12 -9 -22 -14 -22 -5 0 -3 11
3 25 13 30 20 28 11 -3z"/>
<path d="M4588 4426 l-26 -32 26 1 c21 0 27 6 33 33 8 40 1 40 -33 -2z"/>
<path d="M4516 4291 c-9 -13 -133 -41 -198 -44 -32 -1 -58 -5 -58 -9 0 -4 -15
-4 -34 -1 -19 3 -42 0 -52 -6 -15 -9 -12 -9 15 -4 25 4 32 3 27 -5 -4 -7 -13
-12 -20 -12 -20 0 -44 -32 -28 -38 8 -2 4 -13 -14 -35 -21 -25 -24 -37 -19
-66 9 -48 14 -54 31 -36 11 11 12 19 4 34 -5 11 -10 24 -10 30 0 19 62 81 81
81 12 0 23 10 29 26 6 14 15 22 21 18 7 -4 7 -9 1 -13 -5 -4 -6 -33 -2 -76 6
-62 7 -64 9 -22 1 44 3 48 24 45 20 -3 22 -9 24 -68 2 -75 10 -110 23 -110 6
0 10 43 10 105 0 99 1 105 20 105 11 0 38 -12 60 -26 33 -22 40 -32 40 -60 0
-18 4 -35 9 -39 12 -7 25 56 18 90 -3 19 2 31 20 45 22 17 24 23 15 50 -6 16
-8 30 -4 30 9 0 -21 20 -30 20 -4 0 -9 -4 -12 -9z m-66 -56 c0 -8 -9 -15 -19
-15 -10 0 -21 7 -25 15 -4 11 1 15 19 15 16 0 25 -6 25 -15z m-214 -41 c-11
-8 -27 -14 -35 -14 -9 0 -3 8 14 19 34 21 50 17 21 -5z"/>
<path d="M4576 4183 c-11 -12 -6 -41 9 -47 11 -4 15 1 15 19 0 25 -12 39 -24
28z"/>
<path d="M4540 3993 c0 -40 -31 -85 -73 -108 -21 -11 -37 -25 -37 -32 0 -6
-10 -14 -22 -16 -23 -4 -23 -4 -1 -6 24 -1 68 -55 58 -71 -3 -5 -1 -10 4 -10
6 0 11 11 11 25 0 14 11 37 25 51 20 20 23 29 14 40 -8 10 -7 17 5 29 9 9 16
22 16 28 0 7 7 25 15 40 13 25 13 30 0 44 -13 13 -15 11 -15 -14z m-43 -140
c2 -6 -2 -13 -10 -16 -8 -3 -13 3 -14 15 -2 20 18 21 24 1z"/>
<path d="M4338 3868 c0 -7 -2 -20 -2 -28 -1 -9 -11 -15 -23 -14 -19 0 -22 -3
-16 -25 7 -33 13 -40 13 -16 0 16 2 16 22 3 19 -13 21 -22 19 -75 -1 -35 2
-64 8 -68 8 -4 11 29 11 106 0 105 1 111 19 106 14 -3 18 -1 14 9 -6 17 -62
19 -65 2z"/>
<path d="M4227 3846 c4 -5 -3 -7 -15 -4 -12 4 -22 2 -22 -4 0 -6 15 -8 35 -6
19 2 37 -1 39 -7 3 -6 5 -5 5 3 1 6 10 12 21 12 11 0 20 4 20 8 0 5 -20 9 -44
8 -26 0 -42 -4 -39 -10z"/>
<path d="M4199 3740 c-1 -3 -2 -16 -3 -31 -1 -18 3 -25 16 -26 14 -1 16 2 9
15 -4 9 -11 24 -14 32 -3 8 -6 13 -8 10z"/>
<path d="M4498 3620 c-6 -40 -5 -46 9 -28 5 7 7 24 3 38 -6 23 -7 23 -12 -10z"/>
<path d="M4358 3549 c-23 -13 -25 -79 -3 -79 8 0 15 9 15 20 0 11 6 20 14 20
9 0 12 8 8 25 -5 28 -9 29 -34 14z"/>
<path d="M4446 3516 c-18 -15 -26 -28 -21 -36 5 -7 7 -34 7 -59 -1 -33 1 -42
8 -31 5 8 10 35 10 59 0 32 6 51 22 68 28 30 11 29 -26 -1z"/>
<path d="M4303 3495 c0 -22 2 -30 4 -17 2 12 2 30 0 40 -3 9 -5 -1 -4 -23z"/>
<path d="M4170 3432 c0 -2 7 -10 16 -19 11 -11 12 -19 5 -26 -6 -6 -11 -19
-11 -30 0 -16 4 -14 29 11 38 38 33 72 -10 69 -16 -1 -29 -3 -29 -5z"/>
<path d="M4351 3420 c-2 -14 -5 -46 -7 -72 -5 -47 0 -56 21 -40 7 5 7 27 -1
72 -6 36 -12 54 -13 40z"/>
<path d="M4477 3366 c-4 -9 -13 -16 -21 -16 -19 0 -31 -39 -17 -53 21 -21 69
41 53 69 -8 15 -10 15 -15 0z"/>
<path d="M4249 3349 c-9 -9 -23 -19 -30 -22 -11 -3 -9 -10 8 -28 21 -21 23
-22 41 -6 10 9 24 17 30 17 20 0 13 24 -11 41 -20 14 -23 14 -38 -2z"/>
<path d="M4360 3266 c-13 -15 -30 -24 -37 -22 -8 3 -13 -2 -13 -15 0 -14 5
-19 14 -16 9 4 17 -3 21 -16 5 -17 8 -18 12 -7 3 8 12 20 20 27 9 7 13 24 11
43 l-3 32 -25 -26z"/>
<path d="M4461 3233 c0 -6 -4 -20 -7 -30 -5 -14 -4 -15 5 -7 7 7 11 20 8 30
-3 11 -5 14 -6 7z"/>
<path d="M4220 3201 c-9 -19 -8 -21 15 -21 28 0 32 12 11 29 -12 10 -17 8 -26
-8z"/>
<path d="M4438 3082 c-31 -20 -57 -42 -58 -48 0 -7 -8 -11 -17 -10 -10 0 -19
-6 -20 -14 -3 -12 9 -15 55 -16 60 0 70 9 48 45 -6 8 2 22 23 41 27 25 38 40
29 40 -2 0 -29 -17 -60 -38z"/>
<path d="M0 15 c0 -13 487 -15 4325 -15 3838 0 4325 2 4325 15 0 13 -487 15
-4325 15 -3838 0 -4325 -2 -4325 -15z"/>
</g>
</svg>
